<svg xmlns="http://www.w3.org/2000/svg" xmlns:xlink="http://www.w3.org/1999/xlink" width="61" height="67" viewBox="0 0 61 67">
  <defs>
    <clipPath id="clip-path">
      <rect id="Rectangle_3317" data-name="Rectangle 3317" width="61" height="67" fill="#fff"/>
    </clipPath>
  </defs>
  <g id="Mask_Group_25" data-name="Mask Group 25" clip-path="url(#clip-path)">
    <g id="noun-valet-parking-640790" transform="translate(1 10)">
      <path id="Path_35414" data-name="Path 35414" d="M0,457.7H1.6v3.377a1.594,1.594,0,0,0,1.6,1.6h3.19a1.6,1.6,0,0,0,1.6-1.6V457.7h25.54v3.377a1.594,1.594,0,0,0,1.6,1.6h3.191a1.6,1.6,0,0,0,1.6-1.6V457.7h1.6v-3.884H0Z" transform="translate(0 -415.387)" fill="#fff"/>
      <path id="Path_35415" data-name="Path 35415" d="M302.17,221.432a3.136,3.136,0,1,1-3.136-3.136,3.136,3.136,0,0,1,3.136,3.136" transform="translate(-270.605 -200.003)" fill="#fff"/>
      <path id="Path_35416" data-name="Path 35416" d="M55.884,132.5H53.7c0,.048,0,.091,0,.142a12.656,12.656,0,0,1-1.248,4.367l-.32-2.357a2.073,2.073,0,0,1-.728.134h0a2.085,2.085,0,0,1-.729-.134l-.32,2.356a12.66,12.66,0,0,1-1.248-4.367c0-.051,0-.094,0-.142h-2.18a3.96,3.96,0,0,0-3.948,3.948v5.7l-5.351,1.742-2.945-7.859S24.035,134.26,20.75,134.26s-13.942,1.773-13.942,1.773L1.676,149.726c-1.077.3-1.678.5-1.678.5v8.13H41.5v-8.13s-.6-.2-1.676-.5l-1.169-3.121,6.23-2.028a1.447,1.447,0,0,0,1-1.377v-5.966h.79v30.191a1.4,1.4,0,0,0,1.393,1.393h1.425a1.4,1.4,0,0,0,1.393-1.393V149.869h1.053v17.557a1.4,1.4,0,0,0,1.393,1.393h1.425a1.4,1.4,0,0,0,1.393-1.393V137.235h.79v11.054a1.448,1.448,0,1,0,2.9,0V136.446a3.959,3.959,0,0,0-3.948-3.948ZM6.112,156.578a2.69,2.69,0,1,1,2.69-2.69A2.689,2.689,0,0,1,6.112,156.578Zm-.622-7.954,3.659-9.741a116.047,116.047,0,0,1,11.6-1.429,116.758,116.758,0,0,1,11.6,1.426L36,148.625a125.772,125.772,0,0,0-15.254-1.59A125.92,125.92,0,0,0,5.49,148.625Zm29.9,7.954a2.69,2.69,0,1,1,2.69-2.69A2.69,2.69,0,0,1,35.385,156.578ZM55.4,138.732h-2.6v-1.089h2.6Z" transform="translate(0.003 -121.538)" fill="#fff"/>
      <path id="Path_35417" data-name="Path 35417" d="M565.3,9.038V5.782s-.807-1.494-3.72-1.494-3.72,1.494-3.72,1.494V9.038a7.473,7.473,0,0,1,7.44,0Z" transform="translate(-510.175 -4.288)" fill="#fff"/>
      <path id="Path_35418" data-name="Path 35418" d="M589.74,131.89l-.344,1.358.041.064a1.5,1.5,0,0,0,1.983,0l.041-.064-.344-1.358Z" transform="translate(-539.016 -120.983)" fill="#fff"/>
      <path id="Path_35419" data-name="Path 35419" d="M565.614,60.123c0-2.036-7.374-2.036-7.374,0a3.687,3.687,0,0,0,7.374,0Z" transform="translate(-510.523 -53.954)" fill="#fff"/>
    </g>
  </g>
</svg>
