<svg xmlns="http://www.w3.org/2000/svg" width="168.706" height="55.045" viewBox="0 0 168.706 55.045">
  <g id="Group_12214" data-name="Group 12214" transform="translate(-156.721 -211.508)">
    <path id="Path_17186" data-name="Path 17186" d="M335.876,268.02V286.3a4.792,4.792,0,1,0,9.583,0h.933a5.7,5.7,0,1,1-11.406,0V268.02a5.7,5.7,0,0,1,11.406,0h-.933a4.792,4.792,0,1,0-9.583,0" transform="translate(-121.354 -34.602)" fill="#231f20"/>
    <rect id="Rectangle_3210" data-name="Rectangle 3210" width="2.681" height="0.975" transform="translate(234.059 242.111)" fill="#231f20"/>
    <path id="Path_17187" data-name="Path 17187" d="M441.219,268.02a5.682,5.682,0,1,1,11.364,0v24h-.89v-7.378h-9.584v7.378h-.89Zm10.474,0a4.792,4.792,0,1,0-9.584,0v15.817h9.584Z" transform="translate(-193.672 -34.602)" fill="#231f20"/>
    <path id="Path_17188" data-name="Path 17188" d="M504.295,262.338a3.774,3.774,0,0,1,0,7.548H492.506v22.135h-.89V262.338Zm0,6.615a2.841,2.841,0,0,0,0-5.682H492.506v5.682Z" transform="translate(-227.98 -34.602)" fill="#231f20"/>
    <rect id="Rectangle_3211" data-name="Rectangle 3211" width="0.89" height="29.682" transform="translate(302.428 227.736)" fill="#231f20"/>
    <path id="Path_17189" data-name="Path 17189" d="M650.866,290.24V262.38h.848v29.64h-.975l-13.824-27.689v27.689h-.891V262.465c0-.042.042-.085.042-.127h.848Z" transform="translate(-326.286 -34.602)" fill="#231f20"/>
    <path id="Path_17190" data-name="Path 17190" d="M418.432,279.381V303.7h.891V279.485a.972.972,0,0,1-.891-.1" transform="translate(-178.16 -46.204)" fill="#231f20"/>
    <path id="Path_17191" data-name="Path 17191" d="M385.518,270.928v26.965h.89V270.855a.946.946,0,0,1-.89.073" transform="translate(-155.753 -40.4)" fill="#231f20"/>
    <path id="Path_17192" data-name="Path 17192" d="M397.106,251.567a62.281,62.281,0,0,0-12.27-3.156l.376-1.459c.242-.941.463-1.888.728-2.822a5.892,5.892,0,0,1,4.672-4.367,6.461,6.461,0,0,1,7.484,4.193,5.64,5.64,0,0,1,.141,3.241c-.355,1.414-.724,2.823-1.087,4.234-.011.041-.025.08-.043.136m.317-6.174c0-.04-.006-.064-.01-.089A6.527,6.527,0,0,0,395.786,242a.234.234,0,0,0-.361-.028.244.244,0,0,0,.006.366,6.088,6.088,0,0,1,1.5,3.1.245.245,0,0,0,.488-.043" transform="translate(-155.289 -19.127)" fill="#231f20"/>
    <path id="Path_17193" data-name="Path 17193" d="M376.287,267.783c.678.1,1.493.2,2.306.327a61.319,61.319,0,0,1,12.438,3.3c.442.168.881.345,1.32.521a.789.789,0,1,1-.583,1.457,60.171,60.171,0,0,0-15.677-4.033.818.818,0,0,1-.751-.624c-.111-.5.277-.96.946-.943" transform="translate(-148.813 -38.309)" fill="#231f20"/>
    <path id="Path_17194" data-name="Path 17194" d="M572.745,287.119a4.791,4.791,0,0,1-9.562-.431v-24h-.891v24a5.681,5.681,0,0,0,11.346.431Z" transform="translate(-276.092 -34.841)" fill="#231f20"/>
    <path id="Path_17195" data-name="Path 17195" d="M165.056,246.734c.151-.123.251-.2.343-.281.25-.229.4-.186.49.145.119.453.238.907.352,1.361a1.829,1.829,0,0,1-.344,1.514,8.284,8.284,0,0,0-1.088,2.792c-.083.328-.118.67-.187,1a.961.961,0,0,1-.117.237l.177.419c-.615-.315-.958-.669-.65-2.139-.329-.049-.457-.245-.584-.767-.108-.116-.214-.234-.325-.347a2.119,2.119,0,0,1-.234-.219,4.244,4.244,0,0,1-.315-.505.8.8,0,0,1-.114-.348c0-.37-.342-.292-.531-.394-.04-.022-.241.166-.3.29a.611.611,0,0,1-.653.371l-.529,1.021-.072-.012c-.034-.388-.054-.778-.109-1.162a3.6,3.6,0,0,0-.178-.566c-.066-.21-.222-.441-.179-.626.137-.586-.3-.842-.6-1.17a6.173,6.173,0,0,0-.666-.55,1.8,1.8,0,0,1-.3-1.9c.145-.326.318-.64.494-.988-.245-.056-.278-.175-.17-.376a1.79,1.79,0,0,0,.184-.535c.018-.1-.019-.289-.089-.324-.379-.191-.216-.49-.132-.723a3.889,3.889,0,0,1,.462-.849c.239-.352.262-.521-.066-.8-.346-.3-.748-.527-1.1-.82a1.437,1.437,0,0,1-.5-.624.959.959,0,0,1,.22-.655,8.523,8.523,0,0,1,.831-1.008.311.311,0,0,0,.043-.445c-.265-.384-.548-.755-.814-1.138a5,5,0,0,1-.815-4.291,3.948,3.948,0,0,1,2.347-2.671,12.16,12.16,0,0,1,4.948-.99c.98-.013,1.961,0,2.989,0,.127-.405.251-.854.407-1.293.45-1.263.9-2.526,1.373-3.78.408-1.084.8-2.175,1.284-3.228a24.275,24.275,0,0,1,1.276-2.277,11.714,11.714,0,0,1,6.14-4.757,10.872,10.872,0,0,1,5.485-.721c1.3.174,2.586.5,3.874.773.792.168,1.584.343,2.367.549,1.622.427,3.27.786,4.848,1.342a11.6,11.6,0,0,1,5.065,3.673,12.657,12.657,0,0,1,2.751,5.815,12.887,12.887,0,0,1-.175,5.65q-.423,1.654-.781,3.326c-.232,1.092-.422,2.192-.625,3.29-.034.185-.038.376-.055.565-.028.308.095.463.41.566a13.5,13.5,0,0,1,3.674,1.9A5.54,5.54,0,0,1,206.345,241a3.872,3.872,0,0,1,.184,3.143,4.086,4.086,0,0,1-2.108,2.368,5.538,5.538,0,0,0-1.132.716,2.407,2.407,0,0,0-.733,1.5,2.622,2.622,0,0,0,0,.434c-.412.02-.586.224-.61.8a1.243,1.243,0,0,1-.317.78c-.395.484-.756,1-1.125,1.5-.177.242-.358.445-.7.233l-.186.238a2.37,2.37,0,0,0-.549-.052.581.581,0,0,0-.51.791,2.172,2.172,0,0,1-.259,1.861c-.262.357-.592.665-.852,1.023a1,1,0,0,0-.08.5c-.012.25,0,.5,0,.776h-.344a1.511,1.511,0,0,0,.075.351,2,2,0,0,1-.226,1.858c-.125.263-.491.414-.762.594-.014.01-.264-.222-.242-.291a1.672,1.672,0,0,0-.223-1.15c-.3-.786-.594-1.575-.819-2.383a17.579,17.579,0,0,1-.344-1.926,2.954,2.954,0,0,1,0-.469c0-.7-.012-1.4.016-2.105a2.185,2.185,0,0,1,.188-.775,2.845,2.845,0,0,0,.263-1.5c-.025-.218.026-.446-.005-.663a3.022,3.022,0,0,0-.545-1.335,5.806,5.806,0,0,1-.456-1.022c-.17-.385-.361-.761-.515-1.153-.245-.624-.467-1.257-.7-1.886-.24-.65-.512-1.29-.715-1.951-.276-.9-.494-1.818-.749-2.724a.586.586,0,0,0-.473-.394c-.271-.07-.527-.2-.8-.276-1.045-.306-2.1-.592-3.14-.909-.881-.268-1.753-.566-2.626-.859q-1.38-.463-2.754-.943c-.921-.323-1.836-.663-2.758-.985-.378-.132-.767-.233-1.15-.351a8.491,8.491,0,0,0-1.551-.464,29.169,29.169,0,0,0-3.3-.157,6.306,6.306,0,0,0-1.748.329,3.163,3.163,0,0,0-.833.571,7.5,7.5,0,0,0-.809.634,5.018,5.018,0,0,0-.9,1.026c-.514.9-.966,1.844-1.419,2.781a2.4,2.4,0,0,0-.162.715c-.049.361-.049.731-.114,1.089a6.275,6.275,0,0,1-1.231,2.974,1.919,1.919,0,0,0-.386,1.284c0,.451-.06.9-.091,1.355a1.635,1.635,0,0,0,.034.231" transform="translate(0 0)" fill="#231f20"/>
    <path id="Path_17196" data-name="Path 17196" d="M214.834,364.15s-.073.07-.13.058a15.221,15.221,0,0,1-1.6-.373,7.153,7.153,0,0,1-1.026-.531c-.363-.19-.729-.372-1.091-.564-.29-.153-.544-.31-.576-.71a.712.712,0,0,1,.407-.645c.589-.428,1.225-.792,1.842-1.181a3.651,3.651,0,0,1,.58-.362,1.514,1.514,0,0,1,1.282.248.881.881,0,0,0,.52.149,1.321,1.321,0,0,1,1.188.362.385.385,0,0,0,.27.079,1.846,1.846,0,0,1,2.023.864c.223.329.49.628.719.952a1.635,1.635,0,0,1,.144.385c.018.05.028.13.063.144.5.2.389.689.494,1.067a.374.374,0,0,1-.185.317,5.236,5.236,0,0,1-1.436.285,12.6,12.6,0,0,1-3.271-.376c-.064-.019-.113-.087-.216-.169" transform="translate(-36.547 -100.933)" fill="#231f20"/>
    <path id="Path_17197" data-name="Path 17197" d="M193.5,306.25l-.193-.5-.085-.021c.339-.614.65-1.247,1.024-1.839a4.828,4.828,0,0,1,1.954-1.679,5.27,5.27,0,0,1,4.121-.019c.318.1.612.27.928.375a2.111,2.111,0,0,1,.984.915c.094.13.165.451.119.48a.945.945,0,0,1-.6.174c-.794-.152-1.576-.367-2.369-.531a7.633,7.633,0,0,0-.856-.049,5.067,5.067,0,0,0-3.787,1.479c-.391.33-.717.738-1.077,1.107a.783.783,0,0,1-.157.106" transform="translate(-24.845 -61.453)" fill="#231f20"/>
    <path id="Path_17198" data-name="Path 17198" d="M243.992,308.943a2.831,2.831,0,0,1,.494-.507,4.563,4.563,0,0,1,2.857-.65,5.139,5.139,0,0,1,2.357.481,5.752,5.752,0,0,1,1.565,1.424,5.565,5.565,0,0,1,.92,1.982,1.826,1.826,0,0,1,.1.721c-.019.159-.194.3-.3.447a2.231,2.231,0,0,1-.273-.277,12.057,12.057,0,0,0-1.131-1.6,6.4,6.4,0,0,0-1.876-1.277,5.842,5.842,0,0,0-2.544-.253c-.585-.007-1.171.051-1.756.048-.309,0-.418-.141-.409-.539" transform="translate(-59.409 -65.533)" fill="#231f20"/>
    <path id="Path_17199" data-name="Path 17199" d="M349.148,367.089h1.412a2.825,2.825,0,0,1,1.333.222,1.126,1.126,0,0,1,.551,1.053,1.166,1.166,0,0,1-.881,1.175,1.352,1.352,0,0,1,.559,2.451,2.875,2.875,0,0,1-1.4.251h-1.569Zm1.44,2.379q1.612,0,1.612-1.118a.885.885,0,0,0-.523-.888,2.839,2.839,0,0,0-1.1-.157h-1.182v2.164Zm.079,2.558a3.519,3.519,0,0,0,1.161-.129,1.04,1.04,0,0,0,.63-1.075.983.983,0,0,0-.58-.974,2.905,2.905,0,0,0-1.2-.194h-1.282v2.372Z" transform="translate(-130.995 -105.912)" fill="#231f20"/>
    <path id="Path_17200" data-name="Path 17200" d="M377.109,369.963l-1.77-2.873h.272l1.626,2.629,1.605-2.629h.272l-1.77,2.888v2.264h-.237Z" transform="translate(-148.825 -105.912)" fill="#231f20"/>
    <path id="Path_17201" data-name="Path 17201" d="M424.735,369.963l-1.77-2.873h.272l1.626,2.629,1.605-2.629h.272l-1.77,2.888v2.264h-.237Z" transform="translate(-181.246 -105.912)" fill="#231f20"/>
    <path id="Path_17202" data-name="Path 17202" d="M451.086,367.533a2.3,2.3,0,0,1,3.49-.007,3.106,3.106,0,0,1,.538,1.9,3.055,3.055,0,0,1-.538,1.891,2.326,2.326,0,0,1-3.49,0,3.055,3.055,0,0,1-.537-1.891,3.093,3.093,0,0,1,.537-1.892m.179,3.618a2.018,2.018,0,0,0,3.131,0,3.41,3.41,0,0,0-.008-3.454,2,2,0,0,0-3.124,0,3.434,3.434,0,0,0,0,3.454" transform="translate(-200.023 -105.667)" fill="#231f20"/>
    <path id="Path_17203" data-name="Path 17203" d="M482.8,367.09h.244v2.9l2.859-2.9h.308l-2.035,2.064,2.342,3.088h-.286l-2.214-2.924-.974.989v1.935H482.8Z" transform="translate(-221.979 -105.912)" fill="#231f20"/>
    <path id="Path_17204" data-name="Path 17204" d="M510.068,367.533a2.3,2.3,0,0,1,3.49-.007,3.106,3.106,0,0,1,.538,1.9,3.056,3.056,0,0,1-.538,1.891,2.327,2.327,0,0,1-3.49,0,3.055,3.055,0,0,1-.537-1.891,3.093,3.093,0,0,1,.537-1.892m.179,3.618a2.018,2.018,0,0,0,3.132,0,3.409,3.409,0,0,0-.008-3.454,2,2,0,0,0-3.124,0,3.435,3.435,0,0,0,0,3.454" transform="translate(-240.175 -105.667)" fill="#231f20"/>
    <path id="Path_17205" data-name="Path 17205" d="M556.415,369.672H558.4V372.1h-.133v-1.285h-.014a1.9,1.9,0,0,1-.7,1.031,1.99,1.99,0,0,1-1.212.37,2.119,2.119,0,0,1-.971-.214,2.043,2.043,0,0,1-.7-.58,2.588,2.588,0,0,1-.425-.86,3.732,3.732,0,0,1-.144-1.052,3.567,3.567,0,0,1,.154-1.063,2.641,2.641,0,0,1,.442-.863,2.08,2.08,0,0,1,.7-.577,2.058,2.058,0,0,1,.944-.21,2.15,2.15,0,0,1,.74.123,1.826,1.826,0,0,1,1.018.9,2.318,2.318,0,0,1,.224.718H558.2a2.113,2.113,0,0,0-.218-.657,1.8,1.8,0,0,0-.395-.5,1.687,1.687,0,0,0-.55-.323,2.014,2.014,0,0,0-.686-.112,1.92,1.92,0,0,0-.894.2,2,2,0,0,0-.663.552,2.476,2.476,0,0,0-.412.817,3.449,3.449,0,0,0-.14,1,3.594,3.594,0,0,0,.134,1,2.4,2.4,0,0,0,.4.816,1.931,1.931,0,0,0,.666.551,2.011,2.011,0,0,0,.928.2,1.878,1.878,0,0,0,.743-.148,1.854,1.854,0,0,0,.606-.414,1.924,1.924,0,0,0,.405-.631,2.112,2.112,0,0,0,.147-.795v-.268h-1.855Z" transform="translate(-270.519 -105.709)" fill="#231f20" stroke="#fff" stroke-miterlimit="10" stroke-width="0.1"/>
    <path id="Path_17206" data-name="Path 17206" d="M556.415,369.672H558.4V372.1h-.133v-1.285h-.014a1.9,1.9,0,0,1-.7,1.031,1.99,1.99,0,0,1-1.212.37,2.119,2.119,0,0,1-.971-.214,2.043,2.043,0,0,1-.7-.58,2.588,2.588,0,0,1-.425-.86,3.732,3.732,0,0,1-.144-1.052,3.567,3.567,0,0,1,.154-1.063,2.641,2.641,0,0,1,.442-.863,2.08,2.08,0,0,1,.7-.577,2.058,2.058,0,0,1,.944-.21,2.15,2.15,0,0,1,.74.123,1.826,1.826,0,0,1,1.018.9,2.318,2.318,0,0,1,.224.718H558.2a2.113,2.113,0,0,0-.218-.657,1.8,1.8,0,0,0-.395-.5,1.687,1.687,0,0,0-.55-.323,2.014,2.014,0,0,0-.686-.112,1.92,1.92,0,0,0-.894.2,2,2,0,0,0-.663.552,2.476,2.476,0,0,0-.412.817,3.449,3.449,0,0,0-.14,1,3.594,3.594,0,0,0,.134,1,2.4,2.4,0,0,0,.4.816,1.931,1.931,0,0,0,.666.551,2.011,2.011,0,0,0,.928.2,1.878,1.878,0,0,0,.743-.148,1.854,1.854,0,0,0,.606-.414,1.924,1.924,0,0,0,.405-.631,2.112,2.112,0,0,0,.147-.795v-.268h-1.855Z" transform="translate(-270.519 -105.709)" fill="#231f20" stroke="#fff" stroke-miterlimit="10" stroke-width="0.1"/>
    <path id="Path_17207" data-name="Path 17207" d="M582.831,372.358v-5.181h1.955a1.579,1.579,0,0,1,1.1.323,1.349,1.349,0,0,1,.362,1.005,1.315,1.315,0,0,1-.254.868,1.344,1.344,0,0,1-.77.468v.015a1.311,1.311,0,0,1,.489.156.78.78,0,0,1,.288.294,1.2,1.2,0,0,1,.134.428,4.075,4.075,0,0,1,.034.559c0,.072,0,.163.007.272s.011.217.02.323.02.2.034.291a.488.488,0,0,0,.053.181h-.148a.965.965,0,0,1-.053-.214q-.02-.134-.03-.286c-.007-.1-.012-.2-.013-.309s0-.2,0-.28a3.359,3.359,0,0,0-.044-.57.923.923,0,0,0-.178-.421.835.835,0,0,0-.382-.261,1.969,1.969,0,0,0-.663-.091h-1.8v2.431Zm1.922-2.576a1.781,1.781,0,0,0,.512-.073,1.148,1.148,0,0,0,.733-.635,1.365,1.365,0,0,0,.114-.584,1.2,1.2,0,0,0-.308-.86,1.333,1.333,0,0,0-.985-.308h-1.855v2.46Z" transform="translate(-290.074 -105.972)" fill="#231f20" stroke="#fff" stroke-miterlimit="10" stroke-width="0.1"/>
    <path id="Path_17208" data-name="Path 17208" d="M582.831,372.358v-5.181h1.955a1.579,1.579,0,0,1,1.1.323,1.349,1.349,0,0,1,.362,1.005,1.315,1.315,0,0,1-.254.868,1.344,1.344,0,0,1-.77.468v.015a1.311,1.311,0,0,1,.489.156.78.78,0,0,1,.288.294,1.2,1.2,0,0,1,.134.428,4.075,4.075,0,0,1,.034.559c0,.072,0,.163.007.272s.011.217.02.323.02.2.034.291a.488.488,0,0,0,.053.181h-.148a.965.965,0,0,1-.053-.214q-.02-.134-.03-.286c-.007-.1-.012-.2-.013-.309s0-.2,0-.28a3.359,3.359,0,0,0-.044-.57.923.923,0,0,0-.178-.421.835.835,0,0,0-.382-.261,1.969,1.969,0,0,0-.663-.091h-1.8v2.431Zm1.922-2.576a1.781,1.781,0,0,0,.512-.073,1.148,1.148,0,0,0,.733-.635,1.365,1.365,0,0,0,.114-.584,1.2,1.2,0,0,0-.308-.86,1.333,1.333,0,0,0-.985-.308h-1.855v2.46Z" transform="translate(-290.074 -105.972)" fill="#231f20" stroke="#fff" stroke-miterlimit="10" stroke-width="0.1"/>
    <path id="Path_17209" data-name="Path 17209" d="M610.669,368.46a2.659,2.659,0,0,1,.421-.864,2.06,2.06,0,0,1,.69-.588,2.174,2.174,0,0,1,1.9,0,2.057,2.057,0,0,1,.69.588,2.674,2.674,0,0,1,.422.864,3.863,3.863,0,0,1,0,2.09,2.668,2.668,0,0,1-.422.864,2.051,2.051,0,0,1-3.275,0,2.653,2.653,0,0,1-.421-.864,3.846,3.846,0,0,1,0-2.09m.14,2.076a2.5,2.5,0,0,0,.408.813,1.912,1.912,0,0,0,3.021,0,2.512,2.512,0,0,0,.409-.813,3.609,3.609,0,0,0,0-2.061,2.513,2.513,0,0,0-.409-.813,1.911,1.911,0,0,0-3.021,0,2.506,2.506,0,0,0-.408.813,3.6,3.6,0,0,0,0,2.061" transform="translate(-308.926 -105.709)" fill="#231f20" stroke="#fff" stroke-miterlimit="10" stroke-width="0.1"/>
    <path id="Path_17210" data-name="Path 17210" d="M610.669,368.46a2.659,2.659,0,0,1,.421-.864,2.06,2.06,0,0,1,.69-.588,2.174,2.174,0,0,1,1.9,0,2.057,2.057,0,0,1,.69.588,2.674,2.674,0,0,1,.422.864,3.863,3.863,0,0,1,0,2.09,2.668,2.668,0,0,1-.422.864,2.051,2.051,0,0,1-3.275,0,2.653,2.653,0,0,1-.421-.864,3.846,3.846,0,0,1,0-2.09Zm.14,2.076a2.5,2.5,0,0,0,.408.813,1.912,1.912,0,0,0,3.021,0,2.512,2.512,0,0,0,.409-.813,3.609,3.609,0,0,0,0-2.061,2.513,2.513,0,0,0-.409-.813,1.911,1.911,0,0,0-3.021,0,2.506,2.506,0,0,0-.408.813,3.6,3.6,0,0,0,0,2.061Z" transform="translate(-308.926 -105.709)" fill="#231f20" stroke="#fff" stroke-miterlimit="10" stroke-width="0.1"/>
    <path id="Path_17211" data-name="Path 17211" d="M644.7,367.177v3.252a2.263,2.263,0,0,1-.449,1.545,1.952,1.952,0,0,1-2.612,0,2.263,2.263,0,0,1-.449-1.545v-3.252h.134v3.252a2.213,2.213,0,0,0,.395,1.422,1.789,1.789,0,0,0,2.451,0,2.212,2.212,0,0,0,.4-1.422v-3.252Z" transform="translate(-329.802 -105.972)" fill="#231f20" stroke="#fff" stroke-miterlimit="10" stroke-width="0.1"/>
    <path id="Path_17212" data-name="Path 17212" d="M644.7,367.177v3.252a2.263,2.263,0,0,1-.449,1.545,1.952,1.952,0,0,1-2.612,0,2.263,2.263,0,0,1-.449-1.545v-3.252h.134v3.252a2.213,2.213,0,0,0,.395,1.422,1.789,1.789,0,0,0,2.451,0,2.212,2.212,0,0,0,.4-1.422v-3.252Z" transform="translate(-329.802 -105.972)" fill="#231f20" stroke="#fff" stroke-miterlimit="10" stroke-width="0.1"/>
    <path id="Path_17213" data-name="Path 17213" d="M671.526,372.358v-5.182h1.935a1.511,1.511,0,0,1,1.071.356,1.379,1.379,0,0,1,.382,1.059,1.511,1.511,0,0,1-.114.606,1.224,1.224,0,0,1-.315.443,1.34,1.34,0,0,1-.479.268,1.967,1.967,0,0,1-.612.091H671.66v2.359Zm1.935-2.5a1.591,1.591,0,0,0,.523-.084,1.172,1.172,0,0,0,.418-.247,1.149,1.149,0,0,0,.278-.4,1.337,1.337,0,0,0,.1-.537,1.281,1.281,0,0,0-.325-.943,1.348,1.348,0,0,0-.994-.327h-1.8v2.533Z" transform="translate(-350.453 -105.971)" fill="#231f20" stroke="#fff" stroke-miterlimit="10" stroke-width="0.1"/>
    <path id="Path_17214" data-name="Path 17214" d="M671.526,372.358v-5.182h1.935a1.511,1.511,0,0,1,1.071.356,1.379,1.379,0,0,1,.382,1.059,1.511,1.511,0,0,1-.114.606,1.224,1.224,0,0,1-.315.443,1.34,1.34,0,0,1-.479.268,1.967,1.967,0,0,1-.612.091H671.66v2.359Zm1.935-2.5a1.591,1.591,0,0,0,.523-.084,1.172,1.172,0,0,0,.418-.247,1.149,1.149,0,0,0,.278-.4,1.337,1.337,0,0,0,.1-.537,1.281,1.281,0,0,0-.325-.943,1.348,1.348,0,0,0-.994-.327h-1.8v2.533Z" transform="translate(-350.453 -105.971)" fill="#231f20" stroke="#fff" stroke-miterlimit="10" stroke-width="0.1"/>
  </g>
</svg>
