<svg xmlns="http://www.w3.org/2000/svg" xmlns:xlink="http://www.w3.org/1999/xlink" width="61" height="67" viewBox="0 0 61 67">
  <defs>
    <clipPath id="clip-path">
      <rect id="Rectangle_3317" data-name="Rectangle 3317" width="61" height="67" fill="#fff"/>
    </clipPath>
  </defs>
  <g id="Mask_Group_28" data-name="Mask Group 28" clip-path="url(#clip-path)">
    <g id="noun-menu-3407743">
      <path id="Path_35320" data-name="Path 35320" d="M193.361,14H142.888c-2.884,0-5.128,2.048-5.128,4.521v58c0,2.543,2.323,4.521,5.128,4.521h50.474c2.884,0,5.127-2.048,5.127-4.521v-58c0-2.473-2.323-4.521-5.127-4.521ZM166.282,41.268a4.551,4.551,0,0,1-4.407,4.309l.481,19.921a3.212,3.212,0,0,1-3.365,3.037,3.116,3.116,0,0,1-3.365-3.037l.481-19.921a4.551,4.551,0,0,1-4.407-4.309V28.058a1.453,1.453,0,0,1,2.884,0V38.937a.6.6,0,0,0,.641.565h1.6a.6.6,0,0,0,.641-.565V28.058a1.453,1.453,0,0,1,2.884,0V38.937a.6.6,0,0,0,.641.565h1.6a.6.6,0,0,0,.641-.565V28.058a1.453,1.453,0,0,1,2.884,0v13.21Zm15.3,9.254h-2.4l.4,14.976a3.212,3.212,0,0,1-3.365,3.037,3.116,3.116,0,0,1-3.365-3.037l.4-37.723a1.25,1.25,0,0,1,1.522-1.13,8.969,8.969,0,0,1,6.73,4.8,30.533,30.533,0,0,1,2.8,10.95l.4,5.3a2.963,2.963,0,0,1-3.125,2.826Z" transform="translate(-137.76 -14)" fill="#fff"/>
    </g>
  </g>
</svg>
