<svg xmlns="http://www.w3.org/2000/svg" xmlns:xlink="http://www.w3.org/1999/xlink" width="61" height="67" viewBox="0 0 61 67">
  <defs>
    <clipPath id="clip-path">
      <rect id="Rectangle_3317" data-name="Rectangle 3317" width="61" height="67" fill="#fff"/>
    </clipPath>
  </defs>
  <g id="Mask_Group_27" data-name="Mask Group 27" clip-path="url(#clip-path)">
    <g id="noun-music-1070945" transform="translate(1.4 0.451)">
      <path id="Path_35359" data-name="Path 35359" d="M154.635,99.679A28.365,28.365,0,1,0,183,128.043a28.365,28.365,0,0,0-28.365-28.364Zm-18.282,47.108a26.1,26.1,0,0,1-7.835-16.869h12.038c.009.067.018.133.028.2s.017.115.027.173.021.129.032.193.019.107.029.16.022.114.033.171.022.112.034.168.027.126.041.188l.037.163c.015.064.031.129.047.193l.034.132c.017.065.034.129.052.193l.044.156c.019.067.039.133.059.2.012.037.023.075.035.112.022.071.045.141.068.211.015.045.03.089.046.134.024.068.047.135.071.2l.041.113q.043.115.087.229l.033.1c.029.072.058.144.088.215.014.034.028.068.043.1.032.076.066.152.1.228l.037.081c.035.078.071.154.108.232l.039.083q.055.114.112.227l.036.071c.044.084.088.168.132.251l.032.058c.043.078.087.156.131.234l.028.049c.049.085.1.17.15.254l.03.049q.075.124.153.245l.022.034q.081.125.165.25l.027.039c.057.085.116.169.175.253l.018.025c.059.083.117.163.178.244l.02.027c.063.084.127.168.192.25l.018.024q.1.122.2.242l.012.014q.1.124.207.246l.018.021c.071.082.142.161.215.242Zm18.282-6.723a12.021,12.021,0,1,1,12.021-12.021A12.021,12.021,0,0,1,154.635,140.064Zm14.077-13.9v0c-.009-.066-.017-.132-.028-.2s-.017-.116-.027-.174-.021-.128-.032-.191-.019-.108-.029-.162-.022-.112-.032-.168-.023-.113-.034-.17-.027-.125-.04-.188-.025-.108-.037-.161-.031-.128-.047-.192c-.011-.045-.023-.09-.034-.134q-.025-.1-.052-.194l-.044-.155c-.019-.067-.039-.134-.059-.2l-.034-.11c-.023-.071-.046-.142-.069-.213l-.046-.134-.071-.2c-.014-.038-.028-.077-.042-.115-.029-.076-.057-.153-.088-.229-.012-.03-.024-.06-.036-.09-.029-.073-.059-.145-.088-.217l-.044-.1q-.048-.114-.1-.227l-.037-.081c-.036-.078-.073-.156-.11-.235l-.037-.076q-.058-.118-.116-.234l-.032-.064q-.066-.128-.134-.254l-.029-.054c-.044-.079-.088-.158-.132-.237l-.028-.049c-.049-.086-.1-.171-.151-.256l-.028-.046c-.051-.084-.1-.168-.156-.25l-.017-.028c-.055-.085-.111-.171-.168-.255l-.024-.036c-.058-.086-.117-.171-.178-.256l-.015-.022c-.059-.083-.119-.165-.179-.246l-.021-.028q-.095-.125-.191-.25l-.018-.023c-.065-.082-.13-.163-.2-.243l-.011-.013q-.1-.124-.207-.246l-.018-.02c-.071-.082-.142-.161-.215-.242l7.767-9.2a26.1,26.1,0,0,1,7.837,16.869Z" transform="translate(-126.27 -90.271)" fill="#fff"/>
      <path id="Path_35360" data-name="Path 35360" d="M278.6,242.37a9.641,9.641,0,1,0,9.641,9.641A9.642,9.642,0,0,0,278.6,242.37Zm0,18.193a8.55,8.55,0,1,1,8.551-8.55A8.55,8.55,0,0,1,278.6,260.563Z" transform="translate(-250.233 -214.239)" fill="#fff"/>
      <path id="Path_35361" data-name="Path 35361" d="M315.026,284.3a4.14,4.14,0,1,0,4.139,4.139A4.14,4.14,0,0,0,315.026,284.3Zm0,6.1a1.959,1.959,0,1,1,1.959-1.959A1.96,1.96,0,0,1,315.026,290.4Z" transform="translate(-286.661 -250.666)" fill="#fff"/>
      <path id="Path_35362" data-name="Path 35362" d="M482.982,37.76a2.158,2.158,0,0,0,2.829-.971l2.7-8.321a.364.364,0,1,0-.693-.225l-2.306,7.094a2.832,2.832,0,0,0-1.424-1,2.158,2.158,0,0,0-2.828.971,2.16,2.16,0,0,0,1.718,2.449Z" transform="translate(-434.622 -27.991)" fill="#fff"/>
      <path id="Path_35363" data-name="Path 35363" d="M526.228,46.38l-1.3-13.092a.547.547,0,1,0-1.088.108l1.11,11.162a4.261,4.261,0,0,0-2.563-.512c-1.976.2-3.457,1.56-3.309,3.045s1.869,2.531,3.844,2.335,3.456-1.561,3.309-3.046Z" transform="translate(-467.522 -32.165)" fill="#fff"/>
    </g>
  </g>
</svg>
