<svg xmlns="http://www.w3.org/2000/svg" xmlns:xlink="http://www.w3.org/1999/xlink" width="61" height="67" viewBox="0 0 61 67">
  <defs>
    <clipPath id="clip-path">
      <rect id="Rectangle_3317" data-name="Rectangle 3317" width="61" height="67" fill="#fff"/>
    </clipPath>
  </defs>
  <g id="Mask_Group_26" data-name="Mask Group 26" clip-path="url(#clip-path)">
    <g id="noun-story-2804352" transform="translate(1 4)">
      <path id="Path_35408" data-name="Path 35408" d="M434.52,61.825a25.487,25.487,0,0,1,5.037,3.434,1.868,1.868,0,0,0,1.936.339,2.063,2.063,0,0,0,1.243-1.616,2.161,2.161,0,0,0-.692-1.954,29.35,29.35,0,0,0-5.817-3.973,1.869,1.869,0,0,0-1.966.146,2.147,2.147,0,0,0-.864,1.885,2.1,2.1,0,0,0,1.1,1.739Z" transform="translate(-393.844 -54.9)" fill="#fff"/>
      <path id="Path_35409" data-name="Path 35409" d="M162.066,62.467a1.961,1.961,0,0,0-1.96,1.96A25.544,25.544,0,1,1,141.137,39.7a1.963,1.963,0,0,0,1.012-3.794,29.512,29.512,0,1,0,21.878,28.519,1.96,1.96,0,0,0-1.96-1.96Z" transform="translate(-105.012 -34.904)" fill="#fff"/>
      <path id="Path_35410" data-name="Path 35410" d="M549.564,191.495q.4,1.212.7,2.491a2.1,2.1,0,0,0,.7,1.152,1.887,1.887,0,0,0,1.219.442,1.8,1.8,0,0,0,.464,0,1.975,1.975,0,0,0,1.212-.951,2.2,2.2,0,0,0,.221-1.585c-.232-.965-.506-1.93-.8-2.872a2.008,2.008,0,0,0-1.493-1.363,1.9,1.9,0,0,0-1.855.7,2.2,2.2,0,0,0-.361,2.058Z" transform="translate(-495.926 -170.384)" fill="#fff"/>
      <path id="Path_35411" data-name="Path 35411" d="M514.18,125.99a1.949,1.949,0,0,0,1.75.984,1.973,1.973,0,0,0,1.676-1.122,2.225,2.225,0,0,0-.075-2.106,31.635,31.635,0,0,0-2.108-3.21,1.9,1.9,0,0,0-1.832-.752,1.994,1.994,0,0,0-1.528,1.313,2.2,2.2,0,0,0,.3,2.065,27.92,27.92,0,0,1,1.813,2.828Z" transform="translate(-462.923 -109.623)" fill="#fff"/>
      <path id="Path_35412" data-name="Path 35412" d="M191.915,100.27a21.914,21.914,0,0,0-15.306,6.192,20.794,20.794,0,0,0,0,29.9,22.015,22.015,0,0,0,30.613,0,20.78,20.78,0,0,0-.006-29.892A21.932,21.932,0,0,0,191.915,100.27Zm0,38.432a17.924,17.924,0,0,1-12.519-5.064,17.008,17.008,0,0,1,0-24.454,18.007,18.007,0,0,1,25.039,0,16.993,16.993,0,0,1-.006,24.447,17.941,17.941,0,0,1-12.512,5.07Z" transform="translate(-162.41 -91.887)" fill="#fff"/>
      <path id="Path_35413" data-name="Path 35413" d="M298.41,220.908h-3.942v-4.174a2.127,2.127,0,0,0-.985-1.817,1.868,1.868,0,0,0-1.971,0,2.127,2.127,0,0,0-.985,1.817v4.2h-3.92a1.952,1.952,0,0,0-1.707,1.049,2.217,2.217,0,0,0,0,2.1,1.952,1.952,0,0,0,1.707,1.049h3.942V229.3a2.127,2.127,0,0,0,.985,1.817,1.868,1.868,0,0,0,1.971,0,2.127,2.127,0,0,0,.985-1.817v-4.2h3.92a1.952,1.952,0,0,0,1.707-1.049,2.218,2.218,0,0,0,0-2.1A1.952,1.952,0,0,0,298.41,220.908Z" transform="translate(-263.003 -193.496)" fill="#fff"/>
    </g>
  </g>
</svg>
